<mxfile host="app.diagrams.net" modified="2023-11-19T09:16:01.551Z" agent="Mozilla/5.0 (Windows NT 10.0; Win64; x64) AppleWebKit/537.36 (KHTML, like Gecko) Chrome/119.0.0.0 Safari/537.36 Edg/119.0.0.0" etag="_sgUT6vEdD_HnLCTM2Q4" version="22.1.3" type="device">
  <diagram name="Page-1" id="C3SWf8OdfP4lcyhR1-6I">
    <mxGraphModel dx="1658" dy="1020" grid="1" gridSize="10" guides="1" tooltips="1" connect="1" arrows="1" fold="1" page="1" pageScale="1" pageWidth="850" pageHeight="1100" math="0" shadow="0">
      <root>
        <mxCell id="0" />
        <mxCell id="1" parent="0" />
        <mxCell id="x1krA42TcIhZ0nZsKs6z-1" value="LoginUser" style="swimlane;fontStyle=1;align=center;verticalAlign=top;childLayout=stackLayout;horizontal=1;startSize=26;horizontalStack=0;resizeParent=1;resizeParentMax=0;resizeLast=0;collapsible=1;marginBottom=0;whiteSpace=wrap;html=1;" parent="1" vertex="1">
          <mxGeometry x="380" y="865" width="160" height="170" as="geometry" />
        </mxCell>
        <mxCell id="x1krA42TcIhZ0nZsKs6z-2" value="- username: String" style="text;strokeColor=none;fillColor=none;align=left;verticalAlign=top;spacingLeft=4;spacingRight=4;overflow=hidden;rotatable=0;points=[[0,0.5],[1,0.5]];portConstraint=eastwest;whiteSpace=wrap;html=1;" parent="x1krA42TcIhZ0nZsKs6z-1" vertex="1">
          <mxGeometry y="26" width="160" height="26" as="geometry" />
        </mxCell>
        <mxCell id="x1krA42TcIhZ0nZsKs6z-5" value="- password: string" style="text;strokeColor=none;fillColor=none;align=left;verticalAlign=top;spacingLeft=4;spacingRight=4;overflow=hidden;rotatable=0;points=[[0,0.5],[1,0.5]];portConstraint=eastwest;whiteSpace=wrap;html=1;" parent="x1krA42TcIhZ0nZsKs6z-1" vertex="1">
          <mxGeometry y="52" width="160" height="118" as="geometry" />
        </mxCell>
        <mxCell id="x1krA42TcIhZ0nZsKs6z-4" value="+ loginUser()" style="text;strokeColor=none;fillColor=none;align=left;verticalAlign=top;spacingLeft=4;spacingRight=4;overflow=hidden;rotatable=0;points=[[0,0.5],[1,0.5]];portConstraint=eastwest;whiteSpace=wrap;html=1;" parent="1" vertex="1">
          <mxGeometry x="380" y="954" width="160" height="26" as="geometry" />
        </mxCell>
        <mxCell id="x1krA42TcIhZ0nZsKs6z-6" value="+ registerUser()" style="text;strokeColor=none;fillColor=none;align=left;verticalAlign=top;spacingLeft=4;spacingRight=4;overflow=hidden;rotatable=0;points=[[0,0.5],[1,0.5]];portConstraint=eastwest;whiteSpace=wrap;html=1;" parent="1" vertex="1">
          <mxGeometry x="380" y="980" width="140" height="26" as="geometry" />
        </mxCell>
        <mxCell id="x1krA42TcIhZ0nZsKs6z-10" value="" style="line;strokeWidth=1;fillColor=none;align=left;verticalAlign=middle;spacingTop=-1;spacingLeft=3;spacingRight=3;rotatable=0;labelPosition=right;points=[];portConstraint=eastwest;strokeColor=inherit;" parent="1" vertex="1">
          <mxGeometry x="380" y="946" width="160" height="8" as="geometry" />
        </mxCell>
        <mxCell id="x1krA42TcIhZ0nZsKs6z-11" value="+ forgotPassword()" style="text;strokeColor=none;fillColor=none;align=left;verticalAlign=top;spacingLeft=4;spacingRight=4;overflow=hidden;rotatable=0;points=[[0,0.5],[1,0.5]];portConstraint=eastwest;whiteSpace=wrap;html=1;" parent="1" vertex="1">
          <mxGeometry x="380" y="1005" width="140" height="30" as="geometry" />
        </mxCell>
        <mxCell id="x1krA42TcIhZ0nZsKs6z-12" value="RegisterUser" style="swimlane;fontStyle=1;align=center;verticalAlign=top;childLayout=stackLayout;horizontal=1;startSize=26;horizontalStack=0;resizeParent=1;resizeParentMax=0;resizeLast=0;collapsible=1;marginBottom=0;whiteSpace=wrap;html=1;" parent="1" vertex="1">
          <mxGeometry x="137.5" y="810" width="150" height="225" as="geometry" />
        </mxCell>
        <mxCell id="x1krA42TcIhZ0nZsKs6z-16" value="+ registerUser()" style="text;strokeColor=none;fillColor=none;align=left;verticalAlign=top;spacingLeft=4;spacingRight=4;overflow=hidden;rotatable=0;points=[[0,0.5],[1,0.5]];portConstraint=eastwest;whiteSpace=wrap;html=1;" parent="1" vertex="1">
          <mxGeometry x="137.5" y="980" width="150" height="26" as="geometry" />
        </mxCell>
        <mxCell id="x1krA42TcIhZ0nZsKs6z-17" value="" style="line;strokeWidth=1;fillColor=none;align=left;verticalAlign=middle;spacingTop=-1;spacingLeft=3;spacingRight=3;rotatable=0;labelPosition=right;points=[];portConstraint=eastwest;strokeColor=inherit;" parent="1" vertex="1">
          <mxGeometry x="137.5" y="972" width="150" height="8" as="geometry" />
        </mxCell>
        <mxCell id="x1krA42TcIhZ0nZsKs6z-18" value="+ loginUser()" style="text;strokeColor=none;fillColor=none;align=left;verticalAlign=top;spacingLeft=4;spacingRight=4;overflow=hidden;rotatable=0;points=[[0,0.5],[1,0.5]];portConstraint=eastwest;whiteSpace=wrap;html=1;" parent="1" vertex="1">
          <mxGeometry x="137.5" y="1005" width="150" height="30" as="geometry" />
        </mxCell>
        <mxCell id="x1krA42TcIhZ0nZsKs6z-13" value="- username: String" style="text;strokeColor=none;fillColor=none;align=left;verticalAlign=top;spacingLeft=4;spacingRight=4;overflow=hidden;rotatable=0;points=[[0,0.5],[1,0.5]];portConstraint=eastwest;whiteSpace=wrap;html=1;" parent="1" vertex="1">
          <mxGeometry x="137.5" y="865" width="150" height="26" as="geometry" />
        </mxCell>
        <mxCell id="x1krA42TcIhZ0nZsKs6z-14" value="- email: string" style="text;strokeColor=none;fillColor=none;align=left;verticalAlign=top;spacingLeft=4;spacingRight=4;overflow=hidden;rotatable=0;points=[[0,0.5],[1,0.5]];portConstraint=eastwest;whiteSpace=wrap;html=1;" parent="1" vertex="1">
          <mxGeometry x="137.5" y="840" width="150" height="25" as="geometry" />
        </mxCell>
        <mxCell id="x1krA42TcIhZ0nZsKs6z-23" value="- phone_no: String" style="text;strokeColor=none;fillColor=none;align=left;verticalAlign=top;spacingLeft=4;spacingRight=4;overflow=hidden;rotatable=0;points=[[0,0.5],[1,0.5]];portConstraint=eastwest;whiteSpace=wrap;html=1;" parent="1" vertex="1">
          <mxGeometry x="137.5" y="891" width="150" height="26" as="geometry" />
        </mxCell>
        <mxCell id="x1krA42TcIhZ0nZsKs6z-24" value="- date_of_birth: String" style="text;strokeColor=none;fillColor=none;align=left;verticalAlign=top;spacingLeft=4;spacingRight=4;overflow=hidden;rotatable=0;points=[[0,0.5],[1,0.5]];portConstraint=eastwest;whiteSpace=wrap;html=1;" parent="1" vertex="1">
          <mxGeometry x="137.5" y="917" width="150" height="26" as="geometry" />
        </mxCell>
        <mxCell id="x1krA42TcIhZ0nZsKs6z-25" value="- password: String" style="text;strokeColor=none;fillColor=none;align=left;verticalAlign=top;spacingLeft=4;spacingRight=4;overflow=hidden;rotatable=0;points=[[0,0.5],[1,0.5]];portConstraint=eastwest;whiteSpace=wrap;html=1;" parent="1" vertex="1">
          <mxGeometry x="137.5" y="943" width="150" height="26" as="geometry" />
        </mxCell>
        <mxCell id="x1krA42TcIhZ0nZsKs6z-35" value="ForgotPassword" style="swimlane;fontStyle=1;align=center;verticalAlign=top;childLayout=stackLayout;horizontal=1;startSize=26;horizontalStack=0;resizeParent=1;resizeParentMax=0;resizeLast=0;collapsible=1;marginBottom=0;whiteSpace=wrap;html=1;" parent="1" vertex="1">
          <mxGeometry x="620" y="905" width="150" height="120" as="geometry" />
        </mxCell>
        <mxCell id="x1krA42TcIhZ0nZsKs6z-36" value="- email: String" style="text;strokeColor=none;fillColor=none;align=left;verticalAlign=top;spacingLeft=4;spacingRight=4;overflow=hidden;rotatable=0;points=[[0,0.5],[1,0.5]];portConstraint=eastwest;whiteSpace=wrap;html=1;" parent="x1krA42TcIhZ0nZsKs6z-35" vertex="1">
          <mxGeometry y="26" width="150" height="26" as="geometry" />
        </mxCell>
        <mxCell id="x1krA42TcIhZ0nZsKs6z-37" value="- newPassword: string" style="text;strokeColor=none;fillColor=none;align=left;verticalAlign=top;spacingLeft=4;spacingRight=4;overflow=hidden;rotatable=0;points=[[0,0.5],[1,0.5]];portConstraint=eastwest;whiteSpace=wrap;html=1;" parent="x1krA42TcIhZ0nZsKs6z-35" vertex="1">
          <mxGeometry y="52" width="150" height="68" as="geometry" />
        </mxCell>
        <mxCell id="x1krA42TcIhZ0nZsKs6z-39" value="+ resetPassword()" style="text;strokeColor=none;fillColor=none;align=left;verticalAlign=top;spacingLeft=4;spacingRight=4;overflow=hidden;rotatable=0;points=[[0,0.5],[1,0.5]];portConstraint=eastwest;whiteSpace=wrap;html=1;" parent="1" vertex="1">
          <mxGeometry x="620" y="995.5" width="140" height="30" as="geometry" />
        </mxCell>
        <mxCell id="x1krA42TcIhZ0nZsKs6z-40" value="" style="line;strokeWidth=1;fillColor=none;align=left;verticalAlign=middle;spacingTop=-1;spacingLeft=3;spacingRight=3;rotatable=0;labelPosition=right;points=[];portConstraint=eastwest;strokeColor=inherit;" parent="1" vertex="1">
          <mxGeometry x="620" y="986" width="150" height="8" as="geometry" />
        </mxCell>
        <mxCell id="x1krA42TcIhZ0nZsKs6z-46" value="User" style="swimlane;fontStyle=1;align=center;verticalAlign=top;childLayout=stackLayout;horizontal=1;startSize=26;horizontalStack=0;resizeParent=1;resizeParentMax=0;resizeLast=0;collapsible=1;marginBottom=0;whiteSpace=wrap;html=1;" parent="1" vertex="1">
          <mxGeometry x="360" y="40" width="160" height="225" as="geometry" />
        </mxCell>
        <mxCell id="x1krA42TcIhZ0nZsKs6z-47" value="+ user()" style="text;strokeColor=none;fillColor=none;align=left;verticalAlign=top;spacingLeft=4;spacingRight=4;overflow=hidden;rotatable=0;points=[[0,0.5],[1,0.5]];portConstraint=eastwest;whiteSpace=wrap;html=1;" parent="1" vertex="1">
          <mxGeometry x="360" y="210" width="160" height="26" as="geometry" />
        </mxCell>
        <mxCell id="x1krA42TcIhZ0nZsKs6z-48" value="" style="line;strokeWidth=1;fillColor=none;align=left;verticalAlign=middle;spacingTop=-1;spacingLeft=3;spacingRight=3;rotatable=0;labelPosition=right;points=[];portConstraint=eastwest;strokeColor=inherit;" parent="1" vertex="1">
          <mxGeometry x="360" y="202" width="160" height="8" as="geometry" />
        </mxCell>
        <mxCell id="x1krA42TcIhZ0nZsKs6z-49" value="+ main()" style="text;strokeColor=none;fillColor=none;align=left;verticalAlign=top;spacingLeft=4;spacingRight=4;overflow=hidden;rotatable=0;points=[[0,0.5],[1,0.5]];portConstraint=eastwest;whiteSpace=wrap;html=1;" parent="1" vertex="1">
          <mxGeometry x="360" y="235" width="160" height="30" as="geometry" />
        </mxCell>
        <mxCell id="x1krA42TcIhZ0nZsKs6z-50" value="- username: String" style="text;strokeColor=none;fillColor=none;align=left;verticalAlign=top;spacingLeft=4;spacingRight=4;overflow=hidden;rotatable=0;points=[[0,0.5],[1,0.5]];portConstraint=eastwest;whiteSpace=wrap;html=1;" parent="1" vertex="1">
          <mxGeometry x="360" y="95" width="150" height="26" as="geometry" />
        </mxCell>
        <mxCell id="x1krA42TcIhZ0nZsKs6z-51" value="- email: string" style="text;strokeColor=none;fillColor=none;align=left;verticalAlign=top;spacingLeft=4;spacingRight=4;overflow=hidden;rotatable=0;points=[[0,0.5],[1,0.5]];portConstraint=eastwest;whiteSpace=wrap;html=1;" parent="1" vertex="1">
          <mxGeometry x="360" y="70" width="150" height="25" as="geometry" />
        </mxCell>
        <mxCell id="x1krA42TcIhZ0nZsKs6z-52" value="- phone_no: String" style="text;strokeColor=none;fillColor=none;align=left;verticalAlign=top;spacingLeft=4;spacingRight=4;overflow=hidden;rotatable=0;points=[[0,0.5],[1,0.5]];portConstraint=eastwest;whiteSpace=wrap;html=1;" parent="1" vertex="1">
          <mxGeometry x="360" y="121" width="150" height="26" as="geometry" />
        </mxCell>
        <mxCell id="x1krA42TcIhZ0nZsKs6z-53" value="- date_of_birth: String" style="text;strokeColor=none;fillColor=none;align=left;verticalAlign=top;spacingLeft=4;spacingRight=4;overflow=hidden;rotatable=0;points=[[0,0.5],[1,0.5]];portConstraint=eastwest;whiteSpace=wrap;html=1;" parent="1" vertex="1">
          <mxGeometry x="360" y="147" width="150" height="26" as="geometry" />
        </mxCell>
        <mxCell id="x1krA42TcIhZ0nZsKs6z-54" value="- address: String" style="text;strokeColor=none;fillColor=none;align=left;verticalAlign=top;spacingLeft=4;spacingRight=4;overflow=hidden;rotatable=0;points=[[0,0.5],[1,0.5]];portConstraint=eastwest;whiteSpace=wrap;html=1;" parent="1" vertex="1">
          <mxGeometry x="360" y="173" width="150" height="26" as="geometry" />
        </mxCell>
        <mxCell id="x1krA42TcIhZ0nZsKs6z-107" style="edgeStyle=orthogonalEdgeStyle;rounded=0;orthogonalLoop=1;jettySize=auto;html=1;exitX=1;exitY=0.25;exitDx=0;exitDy=0;entryX=0;entryY=0.5;entryDx=0;entryDy=0;" parent="1" source="x1krA42TcIhZ0nZsKs6z-86" target="x1krA42TcIhZ0nZsKs6z-52" edge="1">
          <mxGeometry relative="1" as="geometry" />
        </mxCell>
        <mxCell id="x1krA42TcIhZ0nZsKs6z-133" style="edgeStyle=orthogonalEdgeStyle;rounded=0;orthogonalLoop=1;jettySize=auto;html=1;exitX=0.733;exitY=1.137;exitDx=0;exitDy=0;entryX=0.108;entryY=-0.002;entryDx=0;entryDy=0;entryPerimeter=0;exitPerimeter=0;" parent="1" source="x1krA42TcIhZ0nZsKs6z-89" target="x1krA42TcIhZ0nZsKs6z-119" edge="1">
          <mxGeometry relative="1" as="geometry">
            <Array as="points">
              <mxPoint x="140" y="270" />
              <mxPoint x="139" y="270" />
            </Array>
          </mxGeometry>
        </mxCell>
        <mxCell id="gLFyuexuDcTCl6xAan3J-16" style="edgeStyle=orthogonalEdgeStyle;rounded=0;orthogonalLoop=1;jettySize=auto;html=1;exitX=0.25;exitY=1;exitDx=0;exitDy=0;entryX=0;entryY=0.5;entryDx=0;entryDy=0;" edge="1" parent="1" source="x1krA42TcIhZ0nZsKs6z-86" target="x1krA42TcIhZ0nZsKs6z-24">
          <mxGeometry relative="1" as="geometry" />
        </mxCell>
        <mxCell id="x1krA42TcIhZ0nZsKs6z-86" value="Farmer" style="swimlane;fontStyle=1;align=center;verticalAlign=top;childLayout=stackLayout;horizontal=1;startSize=26;horizontalStack=0;resizeParent=1;resizeParentMax=0;resizeLast=0;collapsible=1;marginBottom=0;whiteSpace=wrap;html=1;" parent="1" vertex="1">
          <mxGeometry x="30" y="150" width="160" height="120" as="geometry" />
        </mxCell>
        <mxCell id="x1krA42TcIhZ0nZsKs6z-87" value="- password: String" style="text;strokeColor=none;fillColor=none;align=left;verticalAlign=top;spacingLeft=4;spacingRight=4;overflow=hidden;rotatable=0;points=[[0,0.5],[1,0.5]];portConstraint=eastwest;whiteSpace=wrap;html=1;" parent="x1krA42TcIhZ0nZsKs6z-86" vertex="1">
          <mxGeometry y="26" width="160" height="26" as="geometry" />
        </mxCell>
        <mxCell id="x1krA42TcIhZ0nZsKs6z-88" value="- profile_img: string" style="text;strokeColor=none;fillColor=none;align=left;verticalAlign=top;spacingLeft=4;spacingRight=4;overflow=hidden;rotatable=0;points=[[0,0.5],[1,0.5]];portConstraint=eastwest;whiteSpace=wrap;html=1;" parent="x1krA42TcIhZ0nZsKs6z-86" vertex="1">
          <mxGeometry y="52" width="160" height="68" as="geometry" />
        </mxCell>
        <mxCell id="x1krA42TcIhZ0nZsKs6z-89" value="+ farmers_details()" style="text;strokeColor=none;fillColor=none;align=left;verticalAlign=top;spacingLeft=4;spacingRight=4;overflow=hidden;rotatable=0;points=[[0,0.5],[1,0.5]];portConstraint=eastwest;whiteSpace=wrap;html=1;" parent="1" vertex="1">
          <mxGeometry x="30" y="240.5" width="150" height="30" as="geometry" />
        </mxCell>
        <mxCell id="x1krA42TcIhZ0nZsKs6z-90" value="" style="line;strokeWidth=1;fillColor=none;align=left;verticalAlign=middle;spacingTop=-1;spacingLeft=3;spacingRight=3;rotatable=0;labelPosition=right;points=[];portConstraint=eastwest;strokeColor=inherit;" parent="1" vertex="1">
          <mxGeometry x="30" y="231" width="160" height="8" as="geometry" />
        </mxCell>
        <mxCell id="gLFyuexuDcTCl6xAan3J-4" style="edgeStyle=orthogonalEdgeStyle;rounded=0;orthogonalLoop=1;jettySize=auto;html=1;exitX=0.75;exitY=1;exitDx=0;exitDy=0;entryX=1;entryY=0.5;entryDx=0;entryDy=0;" edge="1" parent="1" source="x1krA42TcIhZ0nZsKs6z-91" target="x1krA42TcIhZ0nZsKs6z-14">
          <mxGeometry relative="1" as="geometry">
            <Array as="points">
              <mxPoint x="800" y="286" />
              <mxPoint x="800" y="853" />
            </Array>
          </mxGeometry>
        </mxCell>
        <mxCell id="gLFyuexuDcTCl6xAan3J-28" style="edgeStyle=orthogonalEdgeStyle;rounded=0;orthogonalLoop=1;jettySize=auto;html=1;entryX=1;entryY=0.5;entryDx=0;entryDy=0;" edge="1" parent="1" source="x1krA42TcIhZ0nZsKs6z-91" target="x1krA42TcIhZ0nZsKs6z-151">
          <mxGeometry relative="1" as="geometry" />
        </mxCell>
        <mxCell id="x1krA42TcIhZ0nZsKs6z-91" value="NGOs" style="swimlane;fontStyle=1;align=center;verticalAlign=top;childLayout=stackLayout;horizontal=1;startSize=26;horizontalStack=0;resizeParent=1;resizeParentMax=0;resizeLast=0;collapsible=1;marginBottom=0;whiteSpace=wrap;html=1;" parent="1" vertex="1">
          <mxGeometry x="660" y="126" width="170" height="160" as="geometry" />
        </mxCell>
        <mxCell id="x1krA42TcIhZ0nZsKs6z-92" value="- password: String" style="text;strokeColor=none;fillColor=none;align=left;verticalAlign=top;spacingLeft=4;spacingRight=4;overflow=hidden;rotatable=0;points=[[0,0.5],[1,0.5]];portConstraint=eastwest;whiteSpace=wrap;html=1;" parent="x1krA42TcIhZ0nZsKs6z-91" vertex="1">
          <mxGeometry y="26" width="170" height="26" as="geometry" />
        </mxCell>
        <mxCell id="x1krA42TcIhZ0nZsKs6z-93" value="- logo_img: string" style="text;strokeColor=none;fillColor=none;align=left;verticalAlign=top;spacingLeft=4;spacingRight=4;overflow=hidden;rotatable=0;points=[[0,0.5],[1,0.5]];portConstraint=eastwest;whiteSpace=wrap;html=1;" parent="x1krA42TcIhZ0nZsKs6z-91" vertex="1">
          <mxGeometry y="52" width="170" height="108" as="geometry" />
        </mxCell>
        <mxCell id="x1krA42TcIhZ0nZsKs6z-94" value="+ ngos_details()" style="text;strokeColor=none;fillColor=none;align=left;verticalAlign=top;spacingLeft=4;spacingRight=4;overflow=hidden;rotatable=0;points=[[0,0.5],[1,0.5]];portConstraint=eastwest;whiteSpace=wrap;html=1;" parent="1" vertex="1">
          <mxGeometry x="660" y="241" width="150" height="30" as="geometry" />
        </mxCell>
        <mxCell id="x1krA42TcIhZ0nZsKs6z-95" value="" style="line;strokeWidth=1;fillColor=none;align=left;verticalAlign=middle;spacingTop=-1;spacingLeft=3;spacingRight=3;rotatable=0;labelPosition=right;points=[];portConstraint=eastwest;strokeColor=inherit;" parent="1" vertex="1">
          <mxGeometry x="660" y="231.5" width="170" height="8" as="geometry" />
        </mxCell>
        <mxCell id="gLFyuexuDcTCl6xAan3J-18" style="edgeStyle=orthogonalEdgeStyle;rounded=0;orthogonalLoop=1;jettySize=auto;html=1;entryX=0.75;entryY=0;entryDx=0;entryDy=0;" edge="1" parent="1" source="x1krA42TcIhZ0nZsKs6z-96" target="x1krA42TcIhZ0nZsKs6z-119">
          <mxGeometry relative="1" as="geometry" />
        </mxCell>
        <mxCell id="x1krA42TcIhZ0nZsKs6z-96" value="Donors" style="swimlane;fontStyle=1;align=center;verticalAlign=top;childLayout=stackLayout;horizontal=1;startSize=26;horizontalStack=0;resizeParent=1;resizeParentMax=0;resizeLast=0;collapsible=1;marginBottom=0;whiteSpace=wrap;html=1;" parent="1" vertex="1">
          <mxGeometry x="180" y="310" width="150" height="120" as="geometry" />
        </mxCell>
        <mxCell id="x1krA42TcIhZ0nZsKs6z-97" value="- password: String" style="text;strokeColor=none;fillColor=none;align=left;verticalAlign=top;spacingLeft=4;spacingRight=4;overflow=hidden;rotatable=0;points=[[0,0.5],[1,0.5]];portConstraint=eastwest;whiteSpace=wrap;html=1;" parent="x1krA42TcIhZ0nZsKs6z-96" vertex="1">
          <mxGeometry y="26" width="150" height="26" as="geometry" />
        </mxCell>
        <mxCell id="x1krA42TcIhZ0nZsKs6z-98" value="- profile_img: string" style="text;strokeColor=none;fillColor=none;align=left;verticalAlign=top;spacingLeft=4;spacingRight=4;overflow=hidden;rotatable=0;points=[[0,0.5],[1,0.5]];portConstraint=eastwest;whiteSpace=wrap;html=1;" parent="x1krA42TcIhZ0nZsKs6z-96" vertex="1">
          <mxGeometry y="52" width="150" height="68" as="geometry" />
        </mxCell>
        <mxCell id="x1krA42TcIhZ0nZsKs6z-99" value="+ donors_details()" style="text;strokeColor=none;fillColor=none;align=left;verticalAlign=top;spacingLeft=4;spacingRight=4;overflow=hidden;rotatable=0;points=[[0,0.5],[1,0.5]];portConstraint=eastwest;whiteSpace=wrap;html=1;" parent="1" vertex="1">
          <mxGeometry x="180" y="400.5" width="150" height="29.5" as="geometry" />
        </mxCell>
        <mxCell id="x1krA42TcIhZ0nZsKs6z-100" value="" style="line;strokeWidth=1;fillColor=none;align=left;verticalAlign=middle;spacingTop=-1;spacingLeft=3;spacingRight=3;rotatable=0;labelPosition=right;points=[];portConstraint=eastwest;strokeColor=inherit;" parent="1" vertex="1">
          <mxGeometry x="180" y="391" width="150" height="8" as="geometry" />
        </mxCell>
        <mxCell id="gLFyuexuDcTCl6xAan3J-27" style="edgeStyle=orthogonalEdgeStyle;rounded=0;orthogonalLoop=1;jettySize=auto;html=1;exitX=0.25;exitY=1;exitDx=0;exitDy=0;entryX=1;entryY=0.5;entryDx=0;entryDy=0;" edge="1" parent="1" source="x1krA42TcIhZ0nZsKs6z-101" target="x1krA42TcIhZ0nZsKs6z-150">
          <mxGeometry relative="1" as="geometry" />
        </mxCell>
        <mxCell id="x1krA42TcIhZ0nZsKs6z-101" value="Volunteer" style="swimlane;fontStyle=1;align=center;verticalAlign=top;childLayout=stackLayout;horizontal=1;startSize=26;horizontalStack=0;resizeParent=1;resizeParentMax=0;resizeLast=0;collapsible=1;marginBottom=0;whiteSpace=wrap;html=1;" parent="1" vertex="1">
          <mxGeometry x="570" y="310" width="150" height="120" as="geometry" />
        </mxCell>
        <mxCell id="x1krA42TcIhZ0nZsKs6z-102" value="- password: String" style="text;strokeColor=none;fillColor=none;align=left;verticalAlign=top;spacingLeft=4;spacingRight=4;overflow=hidden;rotatable=0;points=[[0,0.5],[1,0.5]];portConstraint=eastwest;whiteSpace=wrap;html=1;" parent="x1krA42TcIhZ0nZsKs6z-101" vertex="1">
          <mxGeometry y="26" width="150" height="26" as="geometry" />
        </mxCell>
        <mxCell id="x1krA42TcIhZ0nZsKs6z-103" value="- profile_img: string" style="text;strokeColor=none;fillColor=none;align=left;verticalAlign=top;spacingLeft=4;spacingRight=4;overflow=hidden;rotatable=0;points=[[0,0.5],[1,0.5]];portConstraint=eastwest;whiteSpace=wrap;html=1;" parent="x1krA42TcIhZ0nZsKs6z-101" vertex="1">
          <mxGeometry y="52" width="150" height="68" as="geometry" />
        </mxCell>
        <mxCell id="x1krA42TcIhZ0nZsKs6z-104" value="+ volunteers_details()" style="text;strokeColor=none;fillColor=none;align=left;verticalAlign=top;spacingLeft=4;spacingRight=4;overflow=hidden;rotatable=0;points=[[0,0.5],[1,0.5]];portConstraint=eastwest;whiteSpace=wrap;html=1;" parent="1" vertex="1">
          <mxGeometry x="570" y="400.5" width="140" height="30" as="geometry" />
        </mxCell>
        <mxCell id="x1krA42TcIhZ0nZsKs6z-105" value="" style="line;strokeWidth=1;fillColor=none;align=left;verticalAlign=middle;spacingTop=-1;spacingLeft=3;spacingRight=3;rotatable=0;labelPosition=right;points=[];portConstraint=eastwest;strokeColor=inherit;" parent="1" vertex="1">
          <mxGeometry x="570" y="391" width="150" height="8" as="geometry" />
        </mxCell>
        <mxCell id="x1krA42TcIhZ0nZsKs6z-106" value="- descriptions: String" style="text;strokeColor=none;fillColor=none;align=left;verticalAlign=top;spacingLeft=4;spacingRight=4;overflow=hidden;rotatable=0;points=[[0,0.5],[1,0.5]];portConstraint=eastwest;whiteSpace=wrap;html=1;" parent="1" vertex="1">
          <mxGeometry x="660" y="200.25" width="150" height="26" as="geometry" />
        </mxCell>
        <mxCell id="x1krA42TcIhZ0nZsKs6z-108" style="edgeStyle=orthogonalEdgeStyle;rounded=0;orthogonalLoop=1;jettySize=auto;html=1;exitX=0.5;exitY=0;exitDx=0;exitDy=0;entryX=0;entryY=-0.131;entryDx=0;entryDy=0;entryPerimeter=0;" parent="1" source="x1krA42TcIhZ0nZsKs6z-96" target="x1krA42TcIhZ0nZsKs6z-47" edge="1">
          <mxGeometry relative="1" as="geometry" />
        </mxCell>
        <mxCell id="x1krA42TcIhZ0nZsKs6z-109" style="edgeStyle=orthogonalEdgeStyle;rounded=0;orthogonalLoop=1;jettySize=auto;html=1;exitX=0;exitY=0.25;exitDx=0;exitDy=0;entryX=1.057;entryY=0.467;entryDx=0;entryDy=0;entryPerimeter=0;" parent="1" source="x1krA42TcIhZ0nZsKs6z-91" target="x1krA42TcIhZ0nZsKs6z-52" edge="1">
          <mxGeometry relative="1" as="geometry" />
        </mxCell>
        <mxCell id="x1krA42TcIhZ0nZsKs6z-119" value="Food_Donation" style="swimlane;fontStyle=1;align=center;verticalAlign=top;childLayout=stackLayout;horizontal=1;startSize=26;horizontalStack=0;resizeParent=1;resizeParentMax=0;resizeLast=0;collapsible=1;marginBottom=0;whiteSpace=wrap;html=1;" parent="1" vertex="1">
          <mxGeometry x="120" y="480" width="180" height="300.5" as="geometry" />
        </mxCell>
        <mxCell id="x1krA42TcIhZ0nZsKs6z-120" value="+ display_food_detials()" style="text;strokeColor=none;fillColor=none;align=left;verticalAlign=top;spacingLeft=4;spacingRight=4;overflow=hidden;rotatable=0;points=[[0,0.5],[1,0.5]];portConstraint=eastwest;whiteSpace=wrap;html=1;" parent="1" vertex="1">
          <mxGeometry x="120" y="693.5" width="150" height="26" as="geometry" />
        </mxCell>
        <mxCell id="x1krA42TcIhZ0nZsKs6z-121" value="" style="line;strokeWidth=1;fillColor=none;align=left;verticalAlign=middle;spacingTop=-1;spacingLeft=3;spacingRight=3;rotatable=0;labelPosition=right;points=[];portConstraint=eastwest;strokeColor=inherit;" parent="1" vertex="1">
          <mxGeometry x="120" y="685.5" width="180" height="8" as="geometry" />
        </mxCell>
        <mxCell id="x1krA42TcIhZ0nZsKs6z-122" value="+ display_location()" style="text;strokeColor=none;fillColor=none;align=left;verticalAlign=top;spacingLeft=4;spacingRight=4;overflow=hidden;rotatable=0;points=[[0,0.5],[1,0.5]];portConstraint=eastwest;whiteSpace=wrap;html=1;" parent="1" vertex="1">
          <mxGeometry x="120" y="718.5" width="150" height="30" as="geometry" />
        </mxCell>
        <mxCell id="x1krA42TcIhZ0nZsKs6z-123" value="- descriptions: String" style="text;strokeColor=none;fillColor=none;align=left;verticalAlign=top;spacingLeft=4;spacingRight=4;overflow=hidden;rotatable=0;points=[[0,0.5],[1,0.5]];portConstraint=eastwest;whiteSpace=wrap;html=1;" parent="1" vertex="1">
          <mxGeometry x="120" y="535" width="150" height="26" as="geometry" />
        </mxCell>
        <mxCell id="x1krA42TcIhZ0nZsKs6z-124" value="- food_name: string" style="text;strokeColor=none;fillColor=none;align=left;verticalAlign=top;spacingLeft=4;spacingRight=4;overflow=hidden;rotatable=0;points=[[0,0.5],[1,0.5]];portConstraint=eastwest;whiteSpace=wrap;html=1;" parent="1" vertex="1">
          <mxGeometry x="120" y="510" width="150" height="25" as="geometry" />
        </mxCell>
        <mxCell id="x1krA42TcIhZ0nZsKs6z-125" value="- food_types: String" style="text;strokeColor=none;fillColor=none;align=left;verticalAlign=top;spacingLeft=4;spacingRight=4;overflow=hidden;rotatable=0;points=[[0,0.5],[1,0.5]];portConstraint=eastwest;whiteSpace=wrap;html=1;" parent="1" vertex="1">
          <mxGeometry x="120" y="561" width="150" height="26" as="geometry" />
        </mxCell>
        <mxCell id="x1krA42TcIhZ0nZsKs6z-126" value="- food_quanity: int" style="text;strokeColor=none;fillColor=none;align=left;verticalAlign=top;spacingLeft=4;spacingRight=4;overflow=hidden;rotatable=0;points=[[0,0.5],[1,0.5]];portConstraint=eastwest;whiteSpace=wrap;html=1;" parent="1" vertex="1">
          <mxGeometry x="120" y="587" width="150" height="26" as="geometry" />
        </mxCell>
        <mxCell id="x1krA42TcIhZ0nZsKs6z-127" value="- date_time: String" style="text;strokeColor=none;fillColor=none;align=left;verticalAlign=top;spacingLeft=4;spacingRight=4;overflow=hidden;rotatable=0;points=[[0,0.5],[1,0.5]];portConstraint=eastwest;whiteSpace=wrap;html=1;" parent="1" vertex="1">
          <mxGeometry x="120" y="613" width="150" height="26" as="geometry" />
        </mxCell>
        <mxCell id="x1krA42TcIhZ0nZsKs6z-128" value="- location: String" style="text;strokeColor=none;fillColor=none;align=left;verticalAlign=top;spacingLeft=4;spacingRight=4;overflow=hidden;rotatable=0;points=[[0,0.5],[1,0.5]];portConstraint=eastwest;whiteSpace=wrap;html=1;" parent="1" vertex="1">
          <mxGeometry x="120" y="639" width="150" height="26" as="geometry" />
        </mxCell>
        <mxCell id="x1krA42TcIhZ0nZsKs6z-129" value="- food_image: String" style="text;strokeColor=none;fillColor=none;align=left;verticalAlign=top;spacingLeft=4;spacingRight=4;overflow=hidden;rotatable=0;points=[[0,0.5],[1,0.5]];portConstraint=eastwest;whiteSpace=wrap;html=1;" parent="1" vertex="1">
          <mxGeometry x="120" y="660.5" width="150" height="26" as="geometry" />
        </mxCell>
        <mxCell id="x1krA42TcIhZ0nZsKs6z-130" value="+ donation_history()" style="text;strokeColor=none;fillColor=none;align=left;verticalAlign=top;spacingLeft=4;spacingRight=4;overflow=hidden;rotatable=0;points=[[0,0.5],[1,0.5]];portConstraint=eastwest;whiteSpace=wrap;html=1;" parent="1" vertex="1">
          <mxGeometry x="120" y="748.5" width="150" height="30" as="geometry" />
        </mxCell>
        <mxCell id="x1krA42TcIhZ0nZsKs6z-136" style="edgeStyle=orthogonalEdgeStyle;rounded=0;orthogonalLoop=1;jettySize=auto;html=1;entryX=-0.002;entryY=-0.098;entryDx=0;entryDy=0;entryPerimeter=0;" parent="1" source="x1krA42TcIhZ0nZsKs6z-1" target="x1krA42TcIhZ0nZsKs6z-37" edge="1">
          <mxGeometry relative="1" as="geometry" />
        </mxCell>
        <mxCell id="x1krA42TcIhZ0nZsKs6z-137" style="edgeStyle=orthogonalEdgeStyle;rounded=0;orthogonalLoop=1;jettySize=auto;html=1;entryX=0.008;entryY=0.115;entryDx=0;entryDy=0;entryPerimeter=0;" parent="1" source="x1krA42TcIhZ0nZsKs6z-12" target="x1krA42TcIhZ0nZsKs6z-4" edge="1">
          <mxGeometry relative="1" as="geometry" />
        </mxCell>
        <mxCell id="x1krA42TcIhZ0nZsKs6z-138" value="Rating" style="swimlane;fontStyle=1;align=center;verticalAlign=top;childLayout=stackLayout;horizontal=1;startSize=26;horizontalStack=0;resizeParent=1;resizeParentMax=0;resizeLast=0;collapsible=1;marginBottom=0;whiteSpace=wrap;html=1;" parent="1" vertex="1">
          <mxGeometry x="380" y="322.25" width="150" height="202.25" as="geometry" />
        </mxCell>
        <mxCell id="x1krA42TcIhZ0nZsKs6z-139" value="+ sendFeedbackRating()" style="text;strokeColor=none;fillColor=none;align=left;verticalAlign=top;spacingLeft=4;spacingRight=4;overflow=hidden;rotatable=0;points=[[0,0.5],[1,0.5]];portConstraint=eastwest;whiteSpace=wrap;html=1;" parent="1" vertex="1">
          <mxGeometry x="380" y="492.25" width="150" height="26" as="geometry" />
        </mxCell>
        <mxCell id="x1krA42TcIhZ0nZsKs6z-140" value="" style="line;strokeWidth=1;fillColor=none;align=left;verticalAlign=middle;spacingTop=-1;spacingLeft=3;spacingRight=3;rotatable=0;labelPosition=right;points=[];portConstraint=eastwest;strokeColor=inherit;" parent="1" vertex="1">
          <mxGeometry x="380" y="484.25" width="150" height="8" as="geometry" />
        </mxCell>
        <mxCell id="x1krA42TcIhZ0nZsKs6z-142" value="- location: String" style="text;strokeColor=none;fillColor=none;align=left;verticalAlign=top;spacingLeft=4;spacingRight=4;overflow=hidden;rotatable=0;points=[[0,0.5],[1,0.5]];portConstraint=eastwest;whiteSpace=wrap;html=1;" parent="1" vertex="1">
          <mxGeometry x="380" y="377.25" width="150" height="26" as="geometry" />
        </mxCell>
        <mxCell id="x1krA42TcIhZ0nZsKs6z-143" value="- email: string" style="text;strokeColor=none;fillColor=none;align=left;verticalAlign=top;spacingLeft=4;spacingRight=4;overflow=hidden;rotatable=0;points=[[0,0.5],[1,0.5]];portConstraint=eastwest;whiteSpace=wrap;html=1;" parent="1" vertex="1">
          <mxGeometry x="380" y="352.25" width="150" height="25" as="geometry" />
        </mxCell>
        <mxCell id="x1krA42TcIhZ0nZsKs6z-144" value="- distributed_img: String" style="text;strokeColor=none;fillColor=none;align=left;verticalAlign=top;spacingLeft=4;spacingRight=4;overflow=hidden;rotatable=0;points=[[0,0.5],[1,0.5]];portConstraint=eastwest;whiteSpace=wrap;html=1;" parent="1" vertex="1">
          <mxGeometry x="380" y="403.25" width="150" height="26" as="geometry" />
        </mxCell>
        <mxCell id="x1krA42TcIhZ0nZsKs6z-145" value="- feedback: String" style="text;strokeColor=none;fillColor=none;align=left;verticalAlign=top;spacingLeft=4;spacingRight=4;overflow=hidden;rotatable=0;points=[[0,0.5],[1,0.5]];portConstraint=eastwest;whiteSpace=wrap;html=1;" parent="1" vertex="1">
          <mxGeometry x="380" y="429.25" width="150" height="26" as="geometry" />
        </mxCell>
        <mxCell id="x1krA42TcIhZ0nZsKs6z-146" value="- descriptions: String" style="text;strokeColor=none;fillColor=none;align=left;verticalAlign=top;spacingLeft=4;spacingRight=4;overflow=hidden;rotatable=0;points=[[0,0.5],[1,0.5]];portConstraint=eastwest;whiteSpace=wrap;html=1;" parent="1" vertex="1">
          <mxGeometry x="380" y="455.25" width="150" height="26" as="geometry" />
        </mxCell>
        <mxCell id="x1krA42TcIhZ0nZsKs6z-148" style="edgeStyle=orthogonalEdgeStyle;rounded=0;orthogonalLoop=1;jettySize=auto;html=1;exitX=0.25;exitY=0;exitDx=0;exitDy=0;entryX=1.004;entryY=-0.048;entryDx=0;entryDy=0;entryPerimeter=0;" parent="1" source="x1krA42TcIhZ0nZsKs6z-101" target="x1krA42TcIhZ0nZsKs6z-47" edge="1">
          <mxGeometry relative="1" as="geometry">
            <mxPoint x="590.0000000000002" y="225.5" as="sourcePoint" />
          </mxGeometry>
        </mxCell>
        <mxCell id="x1krA42TcIhZ0nZsKs6z-149" value="ReportWithAdmin" style="swimlane;fontStyle=1;align=center;verticalAlign=top;childLayout=stackLayout;horizontal=1;startSize=26;horizontalStack=0;resizeParent=1;resizeParentMax=0;resizeLast=0;collapsible=1;marginBottom=0;whiteSpace=wrap;html=1;" parent="1" vertex="1">
          <mxGeometry x="380" y="560" width="150" height="120" as="geometry" />
        </mxCell>
        <mxCell id="x1krA42TcIhZ0nZsKs6z-150" value="- username: String" style="text;strokeColor=none;fillColor=none;align=left;verticalAlign=top;spacingLeft=4;spacingRight=4;overflow=hidden;rotatable=0;points=[[0,0.5],[1,0.5]];portConstraint=eastwest;whiteSpace=wrap;html=1;" parent="x1krA42TcIhZ0nZsKs6z-149" vertex="1">
          <mxGeometry y="26" width="150" height="26" as="geometry" />
        </mxCell>
        <mxCell id="x1krA42TcIhZ0nZsKs6z-151" value="- complain_desc: string" style="text;strokeColor=none;fillColor=none;align=left;verticalAlign=top;spacingLeft=4;spacingRight=4;overflow=hidden;rotatable=0;points=[[0,0.5],[1,0.5]];portConstraint=eastwest;whiteSpace=wrap;html=1;" parent="x1krA42TcIhZ0nZsKs6z-149" vertex="1">
          <mxGeometry y="52" width="150" height="68" as="geometry" />
        </mxCell>
        <mxCell id="x1krA42TcIhZ0nZsKs6z-152" value="+ report_details()" style="text;strokeColor=none;fillColor=none;align=left;verticalAlign=top;spacingLeft=4;spacingRight=4;overflow=hidden;rotatable=0;points=[[0,0.5],[1,0.5]];portConstraint=eastwest;whiteSpace=wrap;html=1;" parent="1" vertex="1">
          <mxGeometry x="380" y="650.5" width="140" height="30" as="geometry" />
        </mxCell>
        <mxCell id="x1krA42TcIhZ0nZsKs6z-153" value="" style="line;strokeWidth=1;fillColor=none;align=left;verticalAlign=middle;spacingTop=-1;spacingLeft=3;spacingRight=3;rotatable=0;labelPosition=right;points=[];portConstraint=eastwest;strokeColor=inherit;" parent="1" vertex="1">
          <mxGeometry x="380" y="641" width="150" height="8" as="geometry" />
        </mxCell>
        <mxCell id="gLFyuexuDcTCl6xAan3J-9" style="edgeStyle=orthogonalEdgeStyle;rounded=0;orthogonalLoop=1;jettySize=auto;html=1;exitX=1;exitY=0.5;exitDx=0;exitDy=0;entryX=1.005;entryY=0.064;entryDx=0;entryDy=0;entryPerimeter=0;" edge="1" parent="1" source="x1krA42TcIhZ0nZsKs6z-102" target="x1krA42TcIhZ0nZsKs6z-12">
          <mxGeometry relative="1" as="geometry">
            <Array as="points">
              <mxPoint x="770" y="349" />
              <mxPoint x="770" y="824" />
            </Array>
          </mxGeometry>
        </mxCell>
        <mxCell id="gLFyuexuDcTCl6xAan3J-14" style="edgeStyle=orthogonalEdgeStyle;rounded=0;orthogonalLoop=1;jettySize=auto;html=1;exitX=1;exitY=0.5;exitDx=0;exitDy=0;entryX=0.01;entryY=-0.129;entryDx=0;entryDy=0;entryPerimeter=0;" edge="1" parent="1" source="x1krA42TcIhZ0nZsKs6z-97" target="x1krA42TcIhZ0nZsKs6z-143">
          <mxGeometry relative="1" as="geometry" />
        </mxCell>
        <mxCell id="gLFyuexuDcTCl6xAan3J-15" style="edgeStyle=orthogonalEdgeStyle;rounded=0;orthogonalLoop=1;jettySize=auto;html=1;exitX=0;exitY=0.5;exitDx=0;exitDy=0;entryX=0.988;entryY=0.712;entryDx=0;entryDy=0;entryPerimeter=0;" edge="1" parent="1" source="x1krA42TcIhZ0nZsKs6z-101" target="x1krA42TcIhZ0nZsKs6z-143">
          <mxGeometry relative="1" as="geometry" />
        </mxCell>
        <mxCell id="gLFyuexuDcTCl6xAan3J-17" style="edgeStyle=orthogonalEdgeStyle;rounded=0;orthogonalLoop=1;jettySize=auto;html=1;exitX=0;exitY=0.5;exitDx=0;exitDy=0;entryX=0;entryY=0.5;entryDx=0;entryDy=0;" edge="1" parent="1" source="x1krA42TcIhZ0nZsKs6z-97" target="x1krA42TcIhZ0nZsKs6z-14">
          <mxGeometry relative="1" as="geometry">
            <Array as="points">
              <mxPoint x="90" y="349" />
              <mxPoint x="90" y="852" />
            </Array>
          </mxGeometry>
        </mxCell>
        <mxCell id="gLFyuexuDcTCl6xAan3J-20" value="Donation_history" style="swimlane;fontStyle=1;align=center;verticalAlign=top;childLayout=stackLayout;horizontal=1;startSize=26;horizontalStack=0;resizeParent=1;resizeParentMax=0;resizeLast=0;collapsible=1;marginBottom=0;whiteSpace=wrap;html=1;" vertex="1" parent="1">
          <mxGeometry x="570" y="673.25" width="170" height="120" as="geometry" />
        </mxCell>
        <mxCell id="gLFyuexuDcTCl6xAan3J-21" value="- donation_info: String" style="text;strokeColor=none;fillColor=none;align=left;verticalAlign=top;spacingLeft=4;spacingRight=4;overflow=hidden;rotatable=0;points=[[0,0.5],[1,0.5]];portConstraint=eastwest;whiteSpace=wrap;html=1;" vertex="1" parent="gLFyuexuDcTCl6xAan3J-20">
          <mxGeometry y="26" width="170" height="26" as="geometry" />
        </mxCell>
        <mxCell id="gLFyuexuDcTCl6xAan3J-22" value="- distributed_location: String" style="text;strokeColor=none;fillColor=none;align=left;verticalAlign=top;spacingLeft=4;spacingRight=4;overflow=hidden;rotatable=0;points=[[0,0.5],[1,0.5]];portConstraint=eastwest;whiteSpace=wrap;html=1;" vertex="1" parent="gLFyuexuDcTCl6xAan3J-20">
          <mxGeometry y="52" width="170" height="68" as="geometry" />
        </mxCell>
        <mxCell id="gLFyuexuDcTCl6xAan3J-23" value="+ display_donation_history()" style="text;strokeColor=none;fillColor=none;align=left;verticalAlign=top;spacingLeft=4;spacingRight=4;overflow=hidden;rotatable=0;points=[[0,0.5],[1,0.5]];portConstraint=eastwest;whiteSpace=wrap;html=1;" vertex="1" parent="1">
          <mxGeometry x="570" y="763.75" width="170" height="30" as="geometry" />
        </mxCell>
        <mxCell id="gLFyuexuDcTCl6xAan3J-24" value="" style="line;strokeWidth=1;fillColor=none;align=left;verticalAlign=middle;spacingTop=-1;spacingLeft=3;spacingRight=3;rotatable=0;labelPosition=right;points=[];portConstraint=eastwest;strokeColor=inherit;" vertex="1" parent="1">
          <mxGeometry x="570" y="754.25" width="170" height="8" as="geometry" />
        </mxCell>
        <mxCell id="gLFyuexuDcTCl6xAan3J-25" style="edgeStyle=orthogonalEdgeStyle;rounded=0;orthogonalLoop=1;jettySize=auto;html=1;exitX=1;exitY=0.75;exitDx=0;exitDy=0;entryX=0.001;entryY=0.181;entryDx=0;entryDy=0;entryPerimeter=0;" edge="1" parent="1" source="x1krA42TcIhZ0nZsKs6z-119" target="gLFyuexuDcTCl6xAan3J-22">
          <mxGeometry relative="1" as="geometry">
            <Array as="points">
              <mxPoint x="300" y="738" />
            </Array>
          </mxGeometry>
        </mxCell>
        <mxCell id="gLFyuexuDcTCl6xAan3J-26" style="edgeStyle=orthogonalEdgeStyle;rounded=0;orthogonalLoop=1;jettySize=auto;html=1;exitX=1;exitY=0.5;exitDx=0;exitDy=0;entryX=0.005;entryY=0.273;entryDx=0;entryDy=0;entryPerimeter=0;" edge="1" parent="1" source="x1krA42TcIhZ0nZsKs6z-99" target="x1krA42TcIhZ0nZsKs6z-151">
          <mxGeometry relative="1" as="geometry" />
        </mxCell>
        <mxCell id="gLFyuexuDcTCl6xAan3J-29" style="edgeStyle=orthogonalEdgeStyle;rounded=0;orthogonalLoop=1;jettySize=auto;html=1;exitX=0.75;exitY=1;exitDx=0;exitDy=0;entryX=0.688;entryY=-0.003;entryDx=0;entryDy=0;entryPerimeter=0;" edge="1" parent="1">
          <mxGeometry relative="1" as="geometry">
            <mxPoint x="687.75" y="430.5" as="sourcePoint" />
            <mxPoint x="692.21" y="673.3900000000001" as="targetPoint" />
            <Array as="points">
              <mxPoint x="692" y="430" />
            </Array>
          </mxGeometry>
        </mxCell>
      </root>
    </mxGraphModel>
  </diagram>
</mxfile>
